<?xml version="1.0" encoding="utf-8"?>
<!-- Generator: Adobe Illustrator 17.0.0, SVG Export Plug-In . SVG Version: 6.00 Build 0)  -->
<!DOCTYPE svg PUBLIC "-//W3C//DTD SVG 1.1//EN" "http://www.w3.org/Graphics/SVG/1.1/DTD/svg11.dtd">
<svg version="1.1" id="Layer_1" xmlns="http://www.w3.org/2000/svg" xmlns:xlink="http://www.w3.org/1999/xlink" x="0px" y="0px"
	 width="612px" height="792px" viewBox="0 0 612 792" enable-background="new 0 0 612 792" xml:space="preserve">
<path fill="#C3073F" d="M102.188,414.11c10.082-0.02,18.239-8.21,18.219-18.292c-0.02-10.082-8.21-18.239-18.292-18.219
	c-10.068,0.02-18.219,8.187-18.219,18.256c0,10.082,8.173,18.256,18.256,18.256H102.188z M193.83,377.672
	c-6.4-5.237-15.274-9.964-25.82-13.601c-2.133-0.727-4.34-1.418-6.619-2.073c0.388-1.527,0.727-3.018,1.018-4.473
	c5.091-24.62,1.455-43.784-9.382-50.039c-5.382-3.055-12.583-3.055-21.019,0c-7.637,2.837-16.183,8.219-24.729,15.565
	c-1.697,1.455-3.394,3.006-5.091,4.655c-1.091-1.067-2.206-2.109-3.346-3.127c-18.765-16.728-37.166-23.129-48.003-16.837
	c-5.346,3.273-8.982,9.455-10.546,18.183c-1.346,8.364-0.946,18.183,1.2,29.456l1.818,6.91c-2.424,0.727-4.849,1.576-7.273,2.546
	c-22.547,7.273-36.002,19.274-36.002,31.275c0,6.182,4,12.728,10.91,18.91c6.546,5.819,15.928,10.546,26.802,14.437l5.455,1.455
	c-0.727,2.521-1.333,4.946-1.818,7.273c-4.364,23.165-0.727,40.548,9.637,46.548c2.909,1.636,6.182,2.4,9.819,2.4
	s7.637-0.727,11.892-2.327c8-2.909,17.092-8.364,25.602-16.001c1.455-1.212,2.909-2.497,4.364-3.855l5.455,4.909
	c13.092,11.273,25.82,17.201,35.638,17.201c3.637,0,6.91-0.727,9.673-2.473c5.455-3.273,9.237-9.564,10.91-18.619
	c1.564-8.364,1.236-18.91-1.018-30.184c-0.339-1.746-0.739-3.564-1.2-5.455l3.855-1.091c23.856-7.891,38.548-20.619,38.548-33.093
	c0-6.182-3.637-12.473-10.546-18.183L193.83,377.672z M113.098,329.669c7.637-6.691,15.201-11.528,21.929-13.964
	c5.819-2.182,10.655-2.437,13.637-0.727c3.164,1.818,5.455,6.437,6.546,12.946c1.309,7.637,0.836,17.201-1.346,27.783l-0.727,4.109
	c-8.985-2.054-18.097-3.512-27.274-4.364c-5.215-7.523-10.925-14.691-17.092-21.456l4.728-4.291L113.098,329.669z M60.367,406.401
	c1.794,3.491,3.709,7.007,5.746,10.546c2.085,3.564,4.218,7.055,6.4,10.473c-6.316-0.692-12.591-1.712-18.801-3.055
	c1.818-5.819,4-11.855,6.619-18.001L60.367,406.401z M60.294,385.818c-2.546-6-4.728-11.928-6.473-17.674
	c5.819-1.309,12.001-2.364,18.547-3.164c-2.182,3.346-4.279,6.764-6.291,10.255c-2.012,3.515-3.952,7.031-5.819,10.546
	L60.294,385.818z M64.949,396.073c2.655-5.528,5.564-11.055,8.728-16.474c3.127-5.455,6.437-10.728,9.819-15.783
	c6.182-0.436,12.364-0.727,18.656-0.727c6.291,0,12.364,0.255,18.547,0.727c3.273,4.982,6.546,10.182,9.819,15.71
	c3.152,5.576,6.061,11.031,8.728,16.365c-2.546,5.455-5.819,11.019-8.728,16.546c-2.909,5.528-6.546,10.91-9.819,15.855
	c-6.182,0.436-12.364,0.655-18.91,0.655s-12.728-0.182-18.547-0.582c-3.637-5.091-6.91-10.401-10.182-15.819
	c-3.273-5.455-6.182-10.982-8.728-16.474H64.949z M138.19,416.801c2.109-3.588,4.097-7.188,5.964-10.801
	c2.617,5.863,4.923,11.859,6.91,17.965c-6.303,1.422-12.675,2.515-19.092,3.273l6.182-10.401L138.19,416.801z M144.081,385.781
	c-1.867-3.491-3.831-7.031-5.891-10.619c-2.012-3.491-4.073-6.885-6.182-10.182c6.473,0.8,12.728,1.891,18.547,3.273
	c-1.887,5.961-4.072,11.823-6.546,17.565L144.081,385.781z M102.261,340.178c4.242,4.644,8.248,9.499,12.001,14.546
	c-4-0.242-8.037-0.364-12.11-0.364s-8.194,0.121-12.364,0.364c4-5.273,8-10.182,12.001-14.546H102.261z M48.948,327.45
	c1.091-6.182,3.273-10.437,6.255-12.183c3.164-1.818,8.291-1.564,14.546,0.727c7.164,2.727,15.274,7.928,23.274,15.128
	c1.091,0.873,2.073,1.818,3.091,2.8c-6.274,6.878-12.081,14.167-17.383,21.819c-9.177,0.858-18.288,2.316-27.274,4.364
	c-0.533-1.939-0.994-4-1.382-6.182c-1.964-9.819-2.364-18.91-1.091-25.82L48.948,327.45z M45.203,422.256
	c-1.697-0.485-3.37-1.006-5.018-1.564c-9.819-3.382-18.11-7.782-23.82-12.728c-4.909-4.182-7.637-8.473-7.637-12.11
	c0-9.019,14.91-18.183,29.602-23.383c2.182-0.727,4.582-1.455,7.019-2.182c2.748,8.817,6.076,17.443,9.964,25.82
	c-3.85,8.501-7.13,17.248-9.819,26.183L45.203,422.256z M92.478,462.04c-17.165,15.019-31.275,18.183-37.166,14.91
	c-7.637-4.546-8.364-22.038-5.455-37.348l1.818-6.8c9.11,1.964,18.345,3.3,27.638,4c5.451,7.613,11.404,14.854,17.819,21.674
	l-3.709,3.564H92.478z M102.515,452.221c-4.364-4.509-8.364-9.455-12.364-14.764c3.879,0.145,7.879,0.23,12.001,0.255
	c4.121,0,8.243-0.097,12.364-0.291c-3.743,5.113-7.749,10.029-12.001,14.728V452.221z M148.7,476.95
	c-8,4.582-23.274-3.637-35.275-13.819c-1.697-1.455-3.394-3.03-5.091-4.728c6.184-6.853,11.894-14.119,17.092-21.747
	c9.299-0.787,18.533-2.209,27.638-4.255l1.091,4.728c4.364,22.183,0,36.002-5.819,39.639L148.7,476.95z M162.919,420.801
	l-3.455,1.091c-2.844-8.869-6.295-17.533-10.328-25.929c3.956-8.25,7.357-16.754,10.182-25.456c2.182,0.582,4.243,1.212,6.182,1.891
	c9.819,3.273,17.819,7.273,23.274,12.001c4.728,4,7.637,8,7.637,11.273c0,6.546-10.182,17.456-32.729,24.729L162.919,420.801z"/>
<path d="M318.637,367.707c0-18.765-13.092-31.929-33.347-31.929h-44.803v102.042h17.892v-38.111h17.747l22.656,38.075h20.619
	l-24.911-40.075c12.219-1.964,24.147-11.746,24.147-29.965V367.707z M258.379,383.963v-32.366h24.474
	c10.11-0.073,17.456,6.364,17.456,16.146s-7.346,16.365-17.456,16.365L258.379,383.963z M364.385,362.143
	c-21.819,0-37.457,17.237-37.457,38.657c0,23.383,16.51,38.839,38.693,38.839c11.783,0,22.656-3.637,29.965-10.692l-7.273-10.546
	c-5.237,5.2-13.819,8.11-21.019,8.11c-13.892,0-22.329-9.201-23.529-20.365h56.985v-3.818c0-23.274-14.183-40.221-36.366-40.221
	V362.143z M343.584,394.873c0.727-9.091,7.055-19.638,20.801-19.638c14.546,0,20.51,10.91,20.801,19.638H343.584z M447.117,362.143
	c-11.783,0-22.474,3.782-31.02,11.892l6.546,11.164c6.437-6.182,13.637-9.091,21.892-9.091c10.255,0,17.274,5.455,17.274,13.819
	v10.91c-5.455-6.182-14.183-9.455-24.001-9.455c-12.001,0-25.82,7.273-25.82,24.001c0,16.365,13.455,24.729,25.456,24.729
	c9.819,0,18.183-3.273,23.638-9.819v8h16.001V388.8c0-19.892-14.474-26.765-30.838-26.765L447.117,362.143z M461.809,420.983
	c-4,5.091-10.546,7.637-17.819,7.637c-9.091,0-16.001-5.2-16.001-13.164c0-8.11,6.546-13.31,15.637-13.31
	c6.91,0,13.819,2.618,17.456,7.637L461.809,420.983z M533.086,376.326c7.031,0,12.607,2.909,16.728,8.728l10.546-9.819
	c-5.455-7.019-14.183-13.092-28.365-13.092c-22.547,0-38.184,16.365-38.184,38.657c0,22.474,15.637,38.839,38.184,38.839
	c14.183,0,22.91-6.109,28.365-13.092l-10.546-9.819c-4.364,5.637-9.819,8.728-17.092,8.728c-13.455,0-22.547-10.255-22.547-24.656
	s8.728-24.474,22.183-24.474H533.086z M608,422.874c-1.455,1.309-4.364,2.546-7.273,2.546c-4.728,0-7.273-3.637-7.273-8.728v-38.693
	h14.91v-14.074h-14.91v-20.219h-16.001v20.219h-12.001v14.074h12.001v42.693c0,12.219,6.764,18.91,19.274,18.91
	c7.419,0,12.146-1.964,15.055-4.728L608,422.874z"/>
</svg>
